<?xml version="1.0" encoding="utf-8"?>
<!-- Generator: Adobe Illustrator 19.0.0, SVG Export Plug-In . SVG Version: 6.00 Build 0)  -->
<svg version="1.1" id="Layer_1" xmlns="http://www.w3.org/2000/svg" xmlns:xlink="http://www.w3.org/1999/xlink" x="0px" y="0px"
	 viewBox="0 0 500 500" style="enable-background:new 0 0 500 500;" xml:space="preserve">
<style type="text/css">
	.st0{fill:#CD5C60;}
	.st1{opacity:0.5;fill:#CD5C60;}
	.st2{opacity:0.26;fill:url(#XMLID_5_);}
	.st3{fill:#E79644;}
	.st4{fill:#EDBB49;}
	.st5{fill:none;}
	.st6{fill:#EEE03D;}
	.st7{fill:#EBE7A2;}
	.st8{fill:#A9A22E;}
</style>
<g id="XMLID_2_">
	<polygon id="XMLID_42_" class="st0" points="402.9,186.6 402.9,97.1 313.4,97.1 250,33.7 186.6,97.1 97.1,97.1 97.1,186.6 
		33.7,250 97.1,313.4 97.1,402.9 186.6,402.9 250,466.3 313.4,402.9 402.9,402.9 402.9,313.4 466.3,250 	"/>
	<polygon id="XMLID_1_" class="st1" points="127.1,127.1 40.3,163.1 76.3,250 40.3,336.9 127.1,372.9 163.1,459.7 250,423.7 
		336.9,459.7 372.9,372.9 459.7,336.9 423.7,250 459.7,163.1 372.9,127.1 336.9,40.3 250,76.3 163.1,40.3 	"/>
	<radialGradient id="XMLID_5_" cx="250" cy="256.4839" r="189.6831" gradientUnits="userSpaceOnUse">
		<stop  offset="0" style="stop-color:#FFFFFF;stop-opacity:0.9495"/>
		<stop  offset="5.196585e-03" style="stop-color:#F0F0F0;stop-opacity:0.9495"/>
		<stop  offset="2.693067e-02" style="stop-color:#B7B7B6;stop-opacity:0.9496"/>
		<stop  offset="4.866335e-02" style="stop-color:#868584;stop-opacity:0.9497"/>
		<stop  offset="6.990194e-02" style="stop-color:#5E5C5B;stop-opacity:0.9497"/>
		<stop  offset="9.054298e-02" style="stop-color:#3E3D3B;stop-opacity:0.9498"/>
		<stop  offset="0.1104" style="stop-color:#282624;stop-opacity:0.9499"/>
		<stop  offset="0.1292" style="stop-color:#1B1917;stop-opacity:0.9499"/>
		<stop  offset="0.1458" style="stop-color:#161412;stop-opacity:0.95"/>
		<stop  offset="0.1775" style="stop-color:#161412;stop-opacity:0.939"/>
		<stop  offset="0.2703" style="stop-color:#161412;stop-opacity:0.8878"/>
		<stop  offset="0.4487" style="stop-color:#161412;stop-opacity:0.6512"/>
		<stop  offset="0.7583" style="stop-color:#161412;stop-opacity:0"/>
	</radialGradient>
	<circle id="XMLID_3_" class="st2" cx="250" cy="256.5" r="189.7"/>
	<g id="XMLID_38_">
		<path id="XMLID_41_" class="st3" d="M303.4,355.4c-31.6,0-25.1-28.5-25.1-28.5h-9.2c1.5-2.8,2.3-5.9,2.3-9.3c0-6.9-3.6-13-9-16.7
			c7.6-7.2,12.7-20.8,12.7-36.4c0-23.1-11.3-41.9-25.2-41.9c-13.9,0-25.2,18.7-25.2,41.9c0,15.6,5.1,29.2,12.7,36.4
			c-5.5,3.7-9,9.8-9,16.7c0,3.3,0.8,6.5,2.3,9.3h-9.2c0,0,6.5,28.5-25.1,28.5s-13.3,11.9-15.8,14.3c-2.5,2.4,69.2,0,69.2,0
			s71.7,2.4,69.2,0C316.7,367.3,335,355.4,303.4,355.4z"/>
		<path id="XMLID_12_" class="st4" d="M282.5,355.4c-19.2,0-15.3-28.5-15.3-28.5h-5.6c0.9-2.8,1.4-5.9,1.4-9.3
			c0-6.9-2.2-13-5.5-16.7c4.6-7.2,7.7-20.8,7.7-36.4c0-23.1-6.8-41.9-15.3-41.9c-8.4,0-15.3,18.7-15.3,41.9
			c0,15.6,3.1,29.2,7.7,36.4c-3.3,3.7-5.5,9.8-5.5,16.7c0,3.3,0.5,6.5,1.4,9.3h-5.6c0,0,4,28.5-15.3,28.5s-8.1,11.9-9.6,14.3
			c-1.5,2.4,42.1,0,42.1,0s43.6,2.4,42.1,0C290.6,367.3,301.7,355.4,282.5,355.4z"/>
		<path id="XMLID_37_" class="st5" d="M133.1,203.6c0,19.6,16,35.6,35.6,35.6H181c-10.5-19.8-17-44.1-18-70.7
			C146.1,171.2,133.1,185.9,133.1,203.6z"/>
		<path id="XMLID_36_" class="st5" d="M331.3,239.1c19.6,0,35.6-16,35.6-35.6c0-17.7-12.9-32.4-29.8-35.1c-1,26.5-7.6,50.9-18,70.7
			H331.3z"/>
		<path id="XMLID_35_" class="st4" d="M168.7,239.1c-19.6,0-35.6-16-35.6-35.6c0-17.7,12.9-32.4,29.8-35.1c-0.1-2.3-0.1-4.6-0.1-7
			c0-3.6,0.1-7.1,0.3-10.6c-26.6,2.8-47.4,25.3-47.4,52.6c0,29.2,23.7,52.9,52.9,52.9h17.8c1.8,0,3.6-0.1,5.4-0.3
			c-4-5.2-7.6-10.9-10.9-17.1H168.7z"/>
		<path id="XMLID_34_" class="st4" d="M336.9,150.9c-0.2-3.9-0.6-7.8-1-11.6H164.1c-0.5,3.8-0.8,7.7-1,11.6c-0.2,3.5-0.3,7-0.3,10.6
			c0,2.3,0,4.7,0.1,7c1,26.5,7.6,50.9,18,70.7c3.3,6.2,6.9,11.9,10.9,17.1c15.4,20.1,35.8,32.4,58.1,32.4s42.7-12.2,58.1-32.4
			c4-5.2,7.6-10.9,10.9-17.1c10.5-19.8,17-44.1,18-70.7c0.1-2.3,0.1-4.6,0.1-7C337.2,157.9,337.1,154.4,336.9,150.9z"/>
		<path id="XMLID_33_" class="st6" d="M318.8,150.9c-0.2-3.9-0.5-7.8-0.8-11.6H175.1c-0.4,3.8-0.7,7.7-0.8,11.6
			c-0.2,3.5-0.3,7-0.3,10.6c0,2.3,0,4.7,0.1,7c0.8,26.5,6.3,50.9,15,70.7c2.7,6.2,5.8,11.9,9.1,17.1c12.8,20.1,29.8,32.4,48.3,32.4
			s35.5-12.2,48.3-32.4c3.3-5.2,6.3-10.9,9.1-17.1c8.7-19.8,14.2-44.1,15-70.7c0.1-2.3,0.1-4.6,0.1-7
			C319,157.9,318.9,154.4,318.8,150.9z"/>
		<path id="XMLID_32_" class="st7" d="M295.2,150.9c-0.1-3.9-0.3-7.8-0.6-11.6h-96.2c-0.3,3.8-0.4,7.7-0.6,11.6
			c-0.1,3.5-0.2,7-0.2,10.6c0,2.3,0,4.7,0.1,7c0.6,26.5,4.2,50.9,10.1,70.7c1.8,6.2,3.9,11.9,6.1,17.1c8.6,20.1,20.1,32.4,32.6,32.4
			c12.5,0,23.9-12.2,32.6-32.4c2.2-5.2,4.3-10.9,6.1-17.1c5.9-19.8,9.6-44.1,10.1-70.7c0-2.3,0.1-4.6,0.1-7
			C295.4,157.9,295.3,154.4,295.2,150.9z"/>
		<g id="XMLID_17_">
			<path id="XMLID_22_" class="st5" d="M366.9,203.6c0-5.9-1.4-11.4-3.9-16.2c-3.8,18.2-9.7,34.8-17.2,48.8
				C358.2,230.5,366.9,218.1,366.9,203.6z"/>
			<path id="XMLID_21_" class="st4" d="M384.2,203.6c0-15.7-6.9-29.8-17.8-39.5c-0.1,0.9-0.2,1.9-0.3,2.8c-0.8,7-1.9,13.9-3.2,20.5
				c2.5,4.9,3.9,10.4,3.9,16.2c0,14.5-8.7,27-21.2,32.5c0,0,0,0,0,0c-3.2,5.9-6.7,11.4-10.4,16.3c-1,1.4-2.1,2.7-3.2,4
				C360.9,256,384.2,232.5,384.2,203.6z"/>
			<path id="XMLID_19_" class="st8" d="M345.7,236.1C345.7,236.1,345.7,236.1,345.7,236.1c-4.4,1.9-9.2,3-14.4,3H319
				c-3.3,6.2-6.9,11.9-10.9,17.1c1.8,0.2,3.6,0.3,5.4,0.3h17.8c0.3,0,0.5,0,0.8,0c1.1-1.3,2.2-2.6,3.2-4
				C339,247.5,342.5,242.1,345.7,236.1z"/>
			<path id="XMLID_18_" class="st8" d="M337.2,161.5c0,2.3,0,4.7-0.1,7c11.3,1.8,20.8,9,25.9,18.9c1.4-6.6,2.5-13.5,3.2-20.5
				c0.1-0.9,0.2-1.9,0.3-2.8c-8.1-7.2-18.3-11.9-29.6-13.1C337.1,154.4,337.2,157.9,337.2,161.5z"/>
		</g>
		<polygon id="XMLID_15_" class="st3" points="250,175 260.4,192.2 280.1,196.8 266.9,212.1 268.6,232.2 250,224.4 231.4,232.2 
			233.1,212.1 219.9,196.8 239.6,192.2 		"/>
	</g>
</g>
</svg>
