<?xml version="1.0" encoding="utf-8"?>
<!-- Generator: Adobe Illustrator 19.0.0, SVG Export Plug-In . SVG Version: 6.00 Build 0)  -->
<svg version="1.1" id="레이어_1" xmlns="http://www.w3.org/2000/svg" xmlns:xlink="http://www.w3.org/1999/xlink" x="0px"
	 y="0px" viewBox="0 0 85 85" style="enable-background:new 0 0 85 85;" xml:space="preserve">
<rect id="XMLID_3_" x="21.3" y="42.5" width="63.8" height="21.2"/>
<rect id="XMLID_4_" x="0" y="63.8" width="21.3" height="21.2"/>
<rect id="XMLID_5_" x="21.3" y="0" width="63.8" height="21.2"/>
<rect id="XMLID_2_" x="0" y="21.3" width="21.3" height="21.2"/>
<g id="XMLID_6_">
	<path id="XMLID_7_" d="M45,83h-7.5v-4.8h1.3V74l-2,3.3h-2.4l-2-3.3v4.2h1.3V83h-7.5v-4.8h1.3v-8.4h-1.3V65h6.2l3.2,5.5l3.2-5.5H45
		v4.8h-1.2v8.4H45V83z M43.4,81.4v-1.7h-1.2V68.3h1.2v-1.7h-3.7l-4,6.8l-3.9-6.8h-3.8v1.7h1.2v11.5h-1.2v1.7h4.2v-1.7h-1.2V68.4
		l4.2,7.3h0.9l4.3-7.3v11.3h-1.2v1.7H43.4z"/>
	<path id="XMLID_10_" d="M65.4,83h-7.5v-4.8h1.3V74l-2,3.3h-2.4l-2-3.3v4.2h1.3V83h-7.5v-4.8h1.3v-8.4h-1.3V65h6.2l3.2,5.5l3.2-5.5
		h6.2v4.8h-1.2v8.4h1.2V83z M63.7,81.4v-1.7h-1.2V68.3h1.2v-1.7H60l-4,6.8L52,66.6h-3.8v1.7h1.2v11.5h-1.2v1.7h4.2v-1.7h-1.2V68.4
		l4.2,7.3h0.9l4.3-7.3v11.3h-1.2v1.7H63.7z"/>
	<path id="XMLID_13_" d="M80.1,79.7L76.9,83h-6.8L67,79.7V68.1l3.1-3.1h6.8l3.2,3.3V79.7z M78.5,79.1V68.8l-2.2-2.3H71l-2.4,2.3
		v10.3l2.2,2.3h5.5L78.5,79.1z M76.3,78.7l-0.9,1h-3.6l-1-1v-9.5l1-1h3.6l0.9,1V78.7z M74.7,78.2v-8.4h-2.3v8.4H74.7z"/>
</g>
</svg>